<svg width="73" height="90" viewBox="0 0 73 90" fill="none" xmlns="http://www.w3.org/2000/svg">
<path d="M55.7367 12.6349C55.0786 11.7849 49.7807 11.4527 43.7649 11.7599C34.4111 12.2672 32.8638 12.7541 32.4636 14.6954C31.2648 19.5765 33.5445 20.4678 44.4456 19.4736C56.2523 18.2175 59.1221 16.6022 55.7367 12.6349Z" fill="black"/>
<path d="M40.6177 42.6902C28.5078 36.045 24.8893 35.2073 25.4833 39.4324C25.7247 41.1488 29.9229 44.194 38.0965 48.6998C44.9519 52.4485 50.8852 55.3843 51.5453 55.2915C52.0735 55.2172 52.3974 53.6906 52.1561 51.9741C51.8219 49.5975 48.942 47.3095 40.6177 42.6902Z" fill="black"/>
<path d="M28.2249 67.0919C21.4005 57.8185 13.555 49.9004 12.2325 51.0288C9.94666 52.966 11.7105 56.892 18.5761 64.5439C22.2812 68.8702 26.2875 73.4234 27.4345 74.8778C28.5816 76.3323 29.9555 77.4855 30.6157 77.3927C33.3884 77.0029 32.3797 72.7014 28.2249 67.0919Z" fill="black"/>
</svg>
